<svg width="34" height="34" viewBox="0 0 34 34" fill="none" xmlns="http://www.w3.org/2000/svg">
<path d="M19.7996 4.56675L19.8 4.56704L27.9598 10.2761C27.9599 10.2761 27.9599 10.2762 27.96 10.2762C28.6179 10.7368 29.2433 11.494 29.7049 12.3781C30.1664 13.2623 30.4308 14.2093 30.4308 15.0167V24.6217C30.4308 27.82 27.834 30.4167 24.6358 30.4167H9.36409C6.16791 30.4167 3.56909 27.8079 3.56909 24.6075V14.8325C3.56909 14.0834 3.80821 13.1843 4.22862 12.3305C4.64882 11.477 5.2182 10.7337 5.8162 10.2672L5.81636 10.2671L12.9118 4.72954C12.9121 4.72929 12.9124 4.72904 12.9128 4.72879C14.7922 3.27333 17.845 3.19729 19.7996 4.56675ZM16.9999 27.3125C17.995 27.3125 18.8124 26.4951 18.8124 25.5V21.25C18.8124 20.255 17.995 19.4375 16.9999 19.4375C16.0049 19.4375 15.1874 20.255 15.1874 21.25V25.5C15.1874 26.4951 16.0049 27.3125 16.9999 27.3125Z" fill="#F5BA41" stroke="#F5BA41" stroke-width="1.5"/>
</svg>
