<svg width="34" height="34" viewBox="0 0 34 34" fill="none" xmlns="http://www.w3.org/2000/svg">
<g clip-path="url(#clip0_6_51269)">
<path d="M10.45 24.7141L10.4438 24.7175L10.4376 24.721L7.10847 26.6193L7.10702 26.6202C6.08652 27.2051 5.32599 27.1648 4.86741 26.8985C4.40861 26.6321 3.99414 25.9898 3.99414 24.8059V11.0217C3.99414 10.7401 4.10013 10.3701 4.31036 10.0087C4.52025 9.64785 4.7921 9.36774 5.04708 9.22204L5.04773 9.22167L10.5833 6.05118V24.6454C10.5379 24.6675 10.4935 24.6904 10.45 24.7141Z" fill="#F5BA41" stroke="#F5BA41" stroke-width="1.5"/>
<path d="M14.5625 6.36504L20.5 9.30552V27.8469L14.5625 24.9863V6.36504Z" fill="#F5BA41" stroke="#F5BA41" stroke-width="1.5"/>
<path d="M31.1667 9.19416V22.9783C31.1667 23.8708 30.5292 24.9758 29.7359 25.4292L24.4779 28.4426C24.1445 28.6336 23.7292 28.393 23.7292 28.0088V8.84698C23.7292 8.66746 23.8255 8.50173 23.9814 8.41274L26.9309 6.72916C29.2542 5.39749 31.1667 6.50249 31.1667 9.19416Z" fill="#F5BA41"/>
</g>
<defs>
<clipPath id="clip0_6_51269">
<rect width="34" height="34" fill="white"/>
</clipPath>
</defs>
</svg>
