<svg width="34" height="34" viewBox="0 0 34 34" fill="none" xmlns="http://www.w3.org/2000/svg">
<path d="M3.24414 11.0217V24.8058C3.24414 27.4975 5.15664 28.6025 7.47997 27.2708L10.8091 25.3725C11.5316 24.9617 12.7358 24.9192 13.4866 25.3017L20.9241 29.0275C21.675 29.3958 22.8791 29.3675 23.6016 28.9567L29.7358 25.4433C30.515 24.99 31.1666 23.885 31.1666 22.9783V9.19415C31.1666 6.50249 29.2541 5.39749 26.9308 6.72915L23.6016 8.62749C22.8791 9.03832 21.675 9.08082 20.9241 8.69832L13.4866 4.98665C12.7358 4.61832 11.5316 4.64665 10.8091 5.05749L4.67497 8.57082C3.88164 9.02415 3.24414 10.1292 3.24414 11.0217Z" stroke="#F5BA41" stroke-width="1.5" stroke-linecap="round" stroke-linejoin="round"/>
<path d="M12.1267 5.66669V24.0834" stroke="#F5BA41" stroke-width="1.5" stroke-linecap="round" stroke-linejoin="round"/>
<path d="M22.2842 9.37836V28.3334" stroke="#F5BA41" stroke-width="1.5" stroke-linecap="round" stroke-linejoin="round"/>
</svg>
