<svg width="31" height="31" viewBox="0 0 31 31" fill="none" xmlns="http://www.w3.org/2000/svg">
<path d="M10.1147 8.71842C10.1147 5.74847 12.5302 3.33301 15.5002 3.33301C18.4696 3.33301 20.8848 5.74769 20.8856 8.71698C20.8735 11.6309 18.6016 13.9825 15.7062 14.0909H15.7061H15.7061H15.7061H15.706H15.706H15.706H15.7059H15.7059H15.7058H15.7058H15.7058H15.7057H15.7057H15.7057H15.7056H15.7056H15.7055H15.7055H15.7055H15.7054H15.7054H15.7053H15.7053H15.7053H15.7052H15.7052H15.7051H15.7051H15.7051H15.705H15.705H15.705H15.7049H15.7049H15.7048H15.7048H15.7048H15.7047H15.7047H15.7046H15.7046H15.7046H15.7045H15.7045H15.7044H15.7044H15.7044H15.7043H15.7043H15.7042H15.7042H15.7042H15.7041H15.7041H15.704H15.704H15.704H15.7039H15.7039H15.7038H15.7038H15.7037H15.7037H15.7037H15.7036H15.7036H15.7035H15.7035H15.7035H15.7034H15.7034H15.7033H15.7033H15.7032H15.7032H15.7032H15.7031H15.7031H15.703H15.703H15.7029H15.7029H15.7029H15.7028H15.7028H15.7027H15.7027H15.7026H15.7026H15.7025H15.7025H15.7025H15.7024H15.7024H15.7023H15.7023H15.7022H15.7022H15.7021H15.7021H15.702H15.702H15.702H15.7019H15.7019H15.7018H15.7018H15.7017H15.7017H15.7016H15.7016H15.7015H15.7015H15.7014H15.7014H15.7013H15.7013H15.7012H15.7012H15.7011H15.7011H15.7011H15.701H15.701H15.7009H15.7009H15.7008H15.7008H15.7007H15.7007H15.7006H15.7006H15.7005H15.7005H15.7004H15.7003H15.7003H15.7002H15.7002H15.7001H15.7001H15.7H15.7H15.6999H15.6999H15.6998H15.6998H15.6997H15.6997H15.6996H15.6996H15.6995H15.6995H15.6994H15.6993H15.6993H15.6992H15.6992H15.6991H15.6991H15.699H15.699H15.6989H15.6988H15.6988H15.6987H15.6987H15.6986H15.6986H15.6985H15.6984H15.6984H15.6983H15.6983H15.6982H15.6981H15.6981H15.698H15.698H15.6979H15.6978H15.6978H15.6977H15.6977H15.6976H15.6975H15.6975H15.6974H15.6974H15.6973H15.6972H15.6972H15.6971H15.697H15.697H15.6969H15.6968H15.6968H15.6967H15.6967H15.6966H15.6965H15.6965H15.6964H15.6963H15.6963H15.6962H15.6961H15.6961H15.696H15.6959H15.6959H15.6958H15.6957H15.6956H15.6956H15.6955H15.6954H15.6954H15.6953H15.6952H15.6952H15.6951H15.695H15.6949H15.6949H15.6948H15.6947H15.6947H15.6946H15.6945H15.6944H15.6944H15.6943H15.6942H15.6941H15.6941H15.694H15.6939H15.6938H15.6936H15.6935H15.6933H15.6932H15.693H15.6929H15.6927H15.6926H15.6924H15.6923H15.6921H15.692H15.6918H15.6917H15.6915H15.6914H15.6912H15.6911H15.6909H15.6908H15.6907H15.6905H15.6904H15.6902H15.6901H15.6899H15.6898H15.6896H15.6895H15.6894H15.6892H15.6891H15.6889H15.6888H15.6886H15.6885H15.6884H15.6882H15.6881H15.6879H15.6878H15.6877H15.6875H15.6874H15.6872H15.6871H15.687H15.6868H15.6867H15.6866H15.6864H15.6863H15.6861H15.686H15.6859H15.6857H15.6856H15.6855H15.6853H15.6852H15.685H15.6849H15.6848H15.6846H15.6845H15.6844H15.6842H15.6841H15.684H15.6838H15.6837H15.6836H15.6834H15.6833H15.6832H15.683H15.6829H15.6828H15.6827H15.6825H15.6824H15.6823H15.6821H15.682H15.6819H15.6817H15.6816H15.6815H15.6813H15.6812H15.6811H15.681H15.6808H15.6807H15.6806H15.6804H15.6803H15.6802H15.6801H15.6799H15.6798H15.6797H15.6796H15.6794H15.6793H15.6792H15.679H15.6789H15.6788C15.5577 14.0775 15.4337 14.0791 15.32 14.0894C12.3596 13.9619 10.1147 11.612 10.1147 8.71842Z" fill="#F5BA41" stroke="#F5BA41" stroke-width="1.5"/>
<path d="M9.35648 25.9731L9.35443 25.9718C7.8785 24.9878 7.15674 23.7259 7.15674 22.4495C7.15674 21.1726 7.87906 19.8982 9.36689 18.9018C11.034 17.7989 13.258 17.2256 15.5162 17.2256C17.7754 17.2256 19.9924 17.7993 21.6457 18.9015C23.1162 19.8818 23.8319 21.1433 23.8434 22.4268C23.8423 23.7157 23.1197 24.9772 21.643 25.9736C19.9834 27.0876 17.7608 27.667 15.5001 27.667C13.239 27.667 11.0161 27.0875 9.35648 25.9731Z" fill="#F5BA41" stroke="#F5BA41" stroke-width="1.5"/>
</svg>
