<svg width="30" height="30" viewBox="0 0 30 30" fill="none" xmlns="http://www.w3.org/2000/svg">
<path d="M15 18.75C17.0711 18.75 18.75 17.0711 18.75 15C18.75 12.9289 17.0711 11.25 15 11.25C12.9289 11.25 11.25 12.9289 11.25 15C11.25 17.0711 12.9289 18.75 15 18.75Z" stroke="#F5BA41" stroke-width="1.5" stroke-miterlimit="10" stroke-linecap="round" stroke-linejoin="round"/>
<path d="M2.5 16.0998V13.8998C2.5 12.5998 3.5625 11.5248 4.875 11.5248C7.1375 11.5248 8.0625 9.9248 6.925 7.9623C6.275 6.8373 6.6625 5.3748 7.8 4.7248L9.9625 3.4873C10.95 2.8998 12.225 3.2498 12.8125 4.2373L12.95 4.4748C14.075 6.4373 15.925 6.4373 17.0625 4.4748L17.2 4.2373C17.7875 3.2498 19.0625 2.8998 20.05 3.4873L22.2125 4.7248C23.35 5.3748 23.7375 6.8373 23.0875 7.9623C21.95 9.9248 22.875 11.5248 25.1375 11.5248C26.4375 11.5248 27.5125 12.5873 27.5125 13.8998V16.0998C27.5125 17.3998 26.45 18.4748 25.1375 18.4748C22.875 18.4748 21.95 20.0748 23.0875 22.0373C23.7375 23.1748 23.35 24.6248 22.2125 25.2748L20.05 26.5123C19.0625 27.0998 17.7875 26.7498 17.2 25.7623L17.0625 25.5248C15.9375 23.5623 14.0875 23.5623 12.95 25.5248L12.8125 25.7623C12.225 26.7498 10.95 27.0998 9.9625 26.5123L7.8 25.2748C6.6625 24.6248 6.275 23.1623 6.925 22.0373C8.0625 20.0748 7.1375 18.4748 4.875 18.4748C3.5625 18.4748 2.5 17.3998 2.5 16.0998Z" stroke="#F5BA41" stroke-width="1.5" stroke-miterlimit="10" stroke-linecap="round" stroke-linejoin="round"/>
</svg>
